<svg class="prefix__prefix__variation-svg prefix__prefix__fade-enter-done" viewBox="20.005 4 534.991 507.743" xmlns="http://www.w3.org/2000/svg" xmlns:xlink="http://www.w3.org/1999/xlink"><svg data-layer-type="text" y="333.94" viewBox="1.89 4.72 69.04 15.49" x="252.98" height="15.49" width="69.04" style="position:absolute"><path d="M3.64 4.87v12.9H1.89V4.87h1.75zm2.73 11.79q0-.21.08-.39.08-.19.21-.33.14-.14.34-.22.2-.08.43-.08.27 0 .49.1.21.1.35.28.14.17.21.4.07.23.07.5 0 .41-.12.84-.11.44-.33.87-.22.42-.54.83-.31.4-.72.75l-.27-.27q-.12-.1-.12-.25 0-.11.13-.24.09-.1.23-.27.14-.16.28-.38.15-.21.27-.48.12-.26.17-.55h-.11q-.24 0-.43-.08-.19-.09-.33-.23-.13-.15-.21-.36-.08-.2-.08-.44zm10.6 1.11l-4.03-12.9h1.45q.24 0 .39.12.15.11.21.29l2.66 8.97q.07.24.13.52t.11.58q.07-.3.13-.59.06-.28.14-.51l3.04-8.97q.05-.15.21-.28.15-.13.38-.13h.5q.24 0 .39.12.14.11.21.29l3.01 8.97q.16.47.29 1.07.05-.3.1-.57.04-.27.12-.5l2.67-8.97q.04-.16.2-.28.16-.13.38-.13h1.36L27 17.77h-1.57l-3.26-9.84q-.1-.28-.18-.65-.05.18-.09.35-.04.16-.08.3l-3.29 9.84h-1.56zm15.75-12.9h7.95v1.42h-6.19v4.29h5.01v1.36h-5.01v4.4h6.19v1.43h-7.95V4.87zm9.74 11.79q0-.21.08-.39.08-.19.21-.33.14-.14.34-.22.2-.08.43-.08.27 0 .49.1.21.1.35.28.14.17.21.4.07.23.07.5 0 .41-.12.84-.11.44-.33.87-.22.42-.54.83-.31.4-.72.75l-.27-.27q-.12-.1-.12-.25 0-.11.13-.24.09-.1.23-.27.14-.16.28-.38.15-.21.27-.48.12-.26.17-.55h-.11q-.24 0-.43-.08-.19-.09-.33-.23-.13-.15-.21-.36-.08-.2-.08-.44zm13.03-.28q.8 0 1.43-.27.63-.27 1.06-.76.44-.48.67-1.16.23-.67.23-1.48V4.87h1.74v7.84q0 1.11-.36 2.07-.36.95-1.02 1.65t-1.61 1.09q-.96.4-2.14.4-1.19 0-2.15-.4-.95-.39-1.62-1.09-.66-.7-1.02-1.65-.35-.96-.35-2.07V4.87h1.73v7.83q0 .81.23 1.48.23.68.67 1.17.44.48 1.07.76.63.27 1.44.27zM70.64 6.06l-.42.82q-.08.14-.17.21-.09.07-.24.07T69.46 7q-.2-.15-.52-.34-.31-.18-.74-.33-.44-.16-1.06-.16-.58 0-1.03.16-.45.16-.76.43-.3.27-.45.63-.15.37-.15.79 0 .54.26.9.27.35.7.6.44.26.99.44.56.18 1.14.38.58.2 1.13.45.56.25.99.62.44.38.7.93.27.55.27 1.35 0 .85-.29 1.59-.29.74-.84 1.29t-1.36.87q-.8.31-1.83.31-1.25 0-2.28-.45-1.03-.46-1.76-1.23l.5-.83q.07-.1.18-.17.1-.06.23-.06.19 0 .43.2t.61.44q.36.25.88.45t1.26.2q.62 0 1.11-.17.49-.17.82-.48.34-.31.52-.74.18-.44.18-.97 0-.58-.26-.96-.27-.37-.7-.62-.43-.25-.99-.43-.55-.17-1.13-.36-.58-.18-1.14-.43-.55-.24-.98-.63-.43-.38-.7-.96-.26-.58-.26-1.44 0-.68.26-1.32.27-.64.77-1.14.51-.49 1.25-.79.74-.3 1.7-.3 1.08 0 1.97.35.9.34 1.56.99z" data-horizontal-grow="center" fill="#5c604b" font-size="18" font-weight="400" font-family="Lato" dominant-baseline="hanging"/></svg><svg data-layer-type="text" y="293.46" viewBox="2.32 8.7 251.59 32.21" x="161.705" height="32.21" width="251.59" style="position:absolute"><path d="M2.32 14.89V9.27h13.31v5.62h-3.28v19.85h3.28v5.62H2.32v-5.62h3.22V14.89H2.32zm31.93.02V9.27h13.31v5.64h-2.77l-8.31 25.45h-8.4l-8.06-25.45h-3V9.27h13.33v5.64h-3.32l5.41 17.64 5.4-17.64h-3.59zM62.1 31.15H49.24v-5.62H62.1v5.62zm30.7-12.43h-6.34q-1.15-1.64-2.07-2.32-.92-.69-1.99-.99-1.07-.3-2.23-.3-1.73 0-3.2.77-1.48.77-2.56 2.1-1.07 1.32-1.69 3.07-.61 1.75-.61 3.72 0 1.99.6 3.75.61 1.75 1.67 3.06 1.07 1.31 2.54 2.08 1.48.77 3.25.77 1.23 0 2.29-.4 1.07-.4 1.94-1.05.87-.66 1.53-1.51.65-.85 1.02-1.77l6.61 1.84q-.64 2.01-1.87 3.72-1.23 1.72-2.96 2.97-1.74 1.25-3.9 1.97-2.16.71-4.66.71-2.12 0-4.04-.57-1.93-.58-3.6-1.62-1.68-1.05-3.04-2.52-1.36-1.48-2.33-3.27-.96-1.8-1.49-3.86-.54-2.06-.54-4.3 0-3.34 1.17-6.26t3.2-5.11q2.03-2.18 4.77-3.44 2.74-1.26 5.9-1.26 2.52 0 4.24.62 1.72.63 3.79 2.47h4.6v6.93zm19.23 22.19q-2.11 0-4.04-.57-1.92-.58-3.59-1.62-1.68-1.05-3.04-2.51-1.36-1.47-2.33-3.26-.96-1.8-1.49-3.85-.54-2.05-.54-4.29 0-2.23.54-4.29.53-2.06 1.49-3.86.97-1.79 2.33-3.26 1.36-1.46 3.04-2.51 1.67-1.05 3.59-1.62 1.93-.57 4.04-.57 2.12 0 4.05.57 1.94.57 3.61 1.62 1.68 1.05 3.04 2.51 1.36 1.47 2.34 3.26.97 1.8 1.5 3.86.54 2.06.54 4.29 0 2.22-.54 4.28-.53 2.06-1.5 3.86-.98 1.79-2.34 3.26-1.36 1.46-3.04 2.51-1.67 1.04-3.61 1.62-1.93.57-4.05.57zm0-6.44q1.79 0 3.28-.77 1.48-.76 2.55-2.09 1.06-1.32 1.65-3.07.58-1.76.58-3.73 0-1.98-.59-3.75-.6-1.76-1.67-3.08-1.08-1.33-2.56-2.1-1.47-.77-3.24-.77-1.76 0-3.24.77-1.47.77-2.54 2.1-1.07 1.32-1.67 3.08-.61 1.77-.61 3.75 0 1.97.61 3.73.6 1.75 1.67 3.07 1.07 1.33 2.54 2.09 1.48.77 3.24.77zm19.16-19.56V9.27h16.45q2.4 0 4.28.72 1.89.72 3.18 1.91 1.29 1.2 1.98 2.79t.69 3.32q0 1.57-.34 2.76-.34 1.19-.99 2.12-.64.92-1.59 1.63-.94.7-2.15 1.28 1.05.53 1.85 1.63.8 1.1 1.21 2.84l1.04 4.04h2.57l.04 6.05h-9.03l-1.23-7.38q-.18-1.32-.56-2.27-.38-.95-1.02-1.56-.63-.6-1.54-.89-.92-.29-2.17-.29h-2.64v6.77h2.85v5.62h-12.88v-5.62h3.22V14.91h-3.22zm14.11 0h-4.08v7.53h4.08q1.17 0 2.1-.22.93-.22 1.6-.68.67-.46 1.02-1.16.36-.69.36-1.66 0-1.8-1.29-2.81-1.29-1-3.79-1zm36.91 0V9.27h11.81v5.64h-2.52v25.45h-6.81l-12.94-20.1v14.48h2.61v5.62h-11.79v-5.62h2.56V14.91h-2.52V9.27H172l12.86 20.36V14.91h-2.65zm15.18.55V9.27h24.73v10.6h-6.69v-4.41h-7.97v6.13h6.17v5.95h-6.17v7.2h7.97v-5.52h6.69v11.14h-24.73v-5.62h3.26V15.46h-3.26zm28.3-.55V9.27h16.45q2.4 0 4.28.72 1.89.72 3.18 1.91 1.29 1.2 1.98 2.79t.69 3.32q0 1.57-.34 2.76-.34 1.19-.99 2.12-.64.92-1.59 1.63-.94.7-2.15 1.28 1.05.53 1.85 1.63.8 1.1 1.21 2.84l1.04 4.04h2.57l.04 6.05h-9.03l-1.23-7.38q-.18-1.32-.56-2.27-.38-.95-1.02-1.56-.63-.6-1.54-.89-.92-.29-2.17-.29h-2.64v6.77h2.85v5.62h-12.88v-5.62h3.22V14.91h-3.22zm14.11 0h-4.08v7.53h4.08q1.17 0 2.1-.22.93-.22 1.6-.68.67-.46 1.02-1.16.36-.69.36-1.66 0-1.8-1.29-2.81-1.29-1-3.79-1z" data-horizontal-grow="center" fill="#5c604b" font-size="42" font-weight="700" font-family="Arvo" dominant-baseline="hanging"/></svg></svg>